<mxfile host="app.diagrams.net" modified="2021-09-01T03:39:59.079Z" agent="5.0 (Windows NT 10.0; Win64; x64) AppleWebKit/537.36 (KHTML, like Gecko) Chrome/92.0.4515.159 Safari/537.36" etag="6g0tVwkExm3GWUpek0Te" version="14.9.8" type="github" pages="2">
  <diagram id="kWHC2gG5g2iS88VrDAVs" name="Page-1">
    <mxGraphModel dx="2382" dy="2236" grid="1" gridSize="10" guides="1" tooltips="1" connect="1" arrows="1" fold="1" page="1" pageScale="1" pageWidth="1600" pageHeight="900" math="0" shadow="0">
      <root>
        <mxCell id="0" />
        <mxCell id="1" parent="0" />
        <mxCell id="MEbzQi6l0P7NfeyUnzle-163" value="" style="rounded=0;whiteSpace=wrap;html=1;strokeColor=#666666;fillColor=#666666;fontColor=#333333;" vertex="1" parent="1">
          <mxGeometry x="733" y="-1535" width="517" height="865" as="geometry" />
        </mxCell>
        <mxCell id="MEbzQi6l0P7NfeyUnzle-85" value="" style="rounded=0;whiteSpace=wrap;html=1;strokeColor=#666666;fillColor=#666666;fontColor=#333333;" vertex="1" parent="1">
          <mxGeometry x="-120" y="-1280" width="820" height="475" as="geometry" />
        </mxCell>
        <mxCell id="MEbzQi6l0P7NfeyUnzle-8" value="" style="rounded=0;whiteSpace=wrap;html=1;strokeColor=#666666;fillColor=#666666;fontColor=#333333;" vertex="1" parent="1">
          <mxGeometry x="-120" y="-1535" width="820" height="245" as="geometry" />
        </mxCell>
        <mxCell id="6H2roo1ruMOSqoAHm1sy-1" value="" style="rounded=0;whiteSpace=wrap;html=1;" parent="1" vertex="1">
          <mxGeometry x="340" y="-60" width="120" height="60" as="geometry" />
        </mxCell>
        <mxCell id="MEbzQi6l0P7NfeyUnzle-103" style="edgeStyle=orthogonalEdgeStyle;rounded=0;orthogonalLoop=1;jettySize=auto;html=1;entryX=0.5;entryY=0;entryDx=0;entryDy=0;" edge="1" parent="1" source="6H2roo1ruMOSqoAHm1sy-2" target="6H2roo1ruMOSqoAHm1sy-4">
          <mxGeometry relative="1" as="geometry" />
        </mxCell>
        <mxCell id="6H2roo1ruMOSqoAHm1sy-2" value="start" style="rounded=1;whiteSpace=wrap;html=1;fillColor=#FFD966;" parent="1" vertex="1">
          <mxGeometry x="70" y="-1780" width="90" height="30" as="geometry" />
        </mxCell>
        <mxCell id="MEbzQi6l0P7NfeyUnzle-100" style="edgeStyle=orthogonalEdgeStyle;rounded=0;orthogonalLoop=1;jettySize=auto;html=1;entryX=0.5;entryY=0;entryDx=0;entryDy=0;" edge="1" parent="1" source="6H2roo1ruMOSqoAHm1sy-4" target="6H2roo1ruMOSqoAHm1sy-6">
          <mxGeometry relative="1" as="geometry" />
        </mxCell>
        <mxCell id="6H2roo1ruMOSqoAHm1sy-4" value="&lt;p style=&quot;margin-top: 0pt ; margin-bottom: 0pt ; margin-left: 0in ; text-align: left ; direction: ltr ; unicode-bidi: embed ; word-break: normal&quot;&gt;&lt;span style=&quot;font-family: &amp;#34;arial&amp;#34;&quot;&gt;&lt;font style=&quot;font-size: 12px&quot;&gt;1.1/1.2/1.3&lt;br&gt;Collect Client Information/ Documents, supplier/ co to click submit DD&lt;/font&gt;&lt;/span&gt;&lt;/p&gt;" style="rounded=0;whiteSpace=wrap;html=1;fillColor=#FFD966;" parent="1" vertex="1">
          <mxGeometry x="45" y="-1730" width="140" height="60" as="geometry" />
        </mxCell>
        <mxCell id="MEbzQi6l0P7NfeyUnzle-101" style="edgeStyle=orthogonalEdgeStyle;rounded=0;orthogonalLoop=1;jettySize=auto;html=1;entryX=0.5;entryY=0;entryDx=0;entryDy=0;" edge="1" parent="1" source="6H2roo1ruMOSqoAHm1sy-6" target="6H2roo1ruMOSqoAHm1sy-8">
          <mxGeometry relative="1" as="geometry" />
        </mxCell>
        <mxCell id="6H2roo1ruMOSqoAHm1sy-6" value="&lt;p style=&quot;margin-top: 0pt ; margin-bottom: 0pt ; margin-left: 0in ; text-align: left ; direction: ltr ; unicode-bidi: embed ; word-break: normal&quot;&gt;&lt;span style=&quot;font-family: &amp;#34;arial&amp;#34;&quot;&gt;&lt;font style=&quot;font-size: 12px&quot;&gt;1.4&lt;br&gt;Ops to be notified that new DD is pending for review&lt;/font&gt;&lt;/span&gt;&lt;/p&gt;" style="rounded=0;whiteSpace=wrap;html=1;fillColor=#FFD966;" parent="1" vertex="1">
          <mxGeometry x="55" y="-1640" width="120" height="60" as="geometry" />
        </mxCell>
        <mxCell id="6H2roo1ruMOSqoAHm1sy-10" style="edgeStyle=orthogonalEdgeStyle;rounded=0;orthogonalLoop=1;jettySize=auto;html=1;startArrow=none;entryX=0;entryY=0.5;entryDx=0;entryDy=0;" parent="1" source="6H2roo1ruMOSqoAHm1sy-11" edge="1" target="6H2roo1ruMOSqoAHm1sy-13">
          <mxGeometry relative="1" as="geometry">
            <mxPoint x="370" y="-1465" as="targetPoint" />
          </mxGeometry>
        </mxCell>
        <mxCell id="MEbzQi6l0P7NfeyUnzle-104" style="edgeStyle=orthogonalEdgeStyle;rounded=0;orthogonalLoop=1;jettySize=auto;html=1;entryX=0.5;entryY=0;entryDx=0;entryDy=0;" edge="1" parent="1" source="6H2roo1ruMOSqoAHm1sy-8" target="MEbzQi6l0P7NfeyUnzle-5">
          <mxGeometry relative="1" as="geometry" />
        </mxCell>
        <mxCell id="6H2roo1ruMOSqoAHm1sy-8" value="&lt;p style=&quot;margin-top: 0pt ; margin-bottom: 0pt ; margin-left: 0in ; direction: ltr ; unicode-bidi: embed ; word-break: normal&quot;&gt;&lt;span style=&quot;font-family: &amp;#34;arial&amp;#34; ; color: white&quot;&gt;&lt;font style=&quot;font-size: 12px&quot;&gt;Ops&lt;br&gt;manually verify the system output against client information given&amp;nbsp;&lt;/font&gt;&lt;/span&gt;&lt;/p&gt;" style="rhombus;whiteSpace=wrap;html=1;fillColor=#000000;strokeColor=#000000;" parent="1" vertex="1">
          <mxGeometry x="2.5" y="-1515" width="225" height="100" as="geometry" />
        </mxCell>
        <mxCell id="6H2roo1ruMOSqoAHm1sy-12" value="&lt;font style=&quot;font-size: 11px&quot;&gt;same&lt;/font&gt;" style="rounded=0;whiteSpace=wrap;html=1;strokeColor=#000000;fillColor=#FFFFFF;" parent="1" vertex="1">
          <mxGeometry x="90" y="-1410" width="50" height="20" as="geometry" />
        </mxCell>
        <mxCell id="6H2roo1ruMOSqoAHm1sy-14" style="edgeStyle=orthogonalEdgeStyle;rounded=0;orthogonalLoop=1;jettySize=auto;html=1;entryX=0.5;entryY=0;entryDx=0;entryDy=0;" parent="1" source="6H2roo1ruMOSqoAHm1sy-13" edge="1" target="MEbzQi6l0P7NfeyUnzle-1">
          <mxGeometry relative="1" as="geometry">
            <mxPoint x="430" y="-1365" as="targetPoint" />
          </mxGeometry>
        </mxCell>
        <mxCell id="6H2roo1ruMOSqoAHm1sy-13" value="&lt;p style=&quot;margin-top: 0pt ; margin-bottom: 0pt ; margin-left: 0in ; text-align: left ; direction: ltr ; unicode-bidi: embed ; word-break: normal&quot;&gt;&lt;span style=&quot;font-family: &amp;#34;arial&amp;#34;&quot;&gt;&lt;font style=&quot;font-size: 12px&quot;&gt;Check&lt;br&gt;with Risk Officer for final decision review (offline)&lt;/font&gt;&lt;/span&gt;&lt;/p&gt;" style="rounded=0;whiteSpace=wrap;html=1;strokeColor=#000000;fillColor=#FFD966;" parent="1" vertex="1">
          <mxGeometry x="370" y="-1495" width="120" height="60" as="geometry" />
        </mxCell>
        <mxCell id="MEbzQi6l0P7NfeyUnzle-6" style="edgeStyle=orthogonalEdgeStyle;rounded=0;orthogonalLoop=1;jettySize=auto;html=1;exitX=0;exitY=0.5;exitDx=0;exitDy=0;" edge="1" parent="1" source="MEbzQi6l0P7NfeyUnzle-1" target="MEbzQi6l0P7NfeyUnzle-5">
          <mxGeometry relative="1" as="geometry" />
        </mxCell>
        <mxCell id="MEbzQi6l0P7NfeyUnzle-102" style="edgeStyle=orthogonalEdgeStyle;rounded=0;orthogonalLoop=1;jettySize=auto;html=1;exitX=1;exitY=0.5;exitDx=0;exitDy=0;entryX=1;entryY=0.75;entryDx=0;entryDy=0;" edge="1" parent="1" source="MEbzQi6l0P7NfeyUnzle-1" target="6H2roo1ruMOSqoAHm1sy-2">
          <mxGeometry relative="1" as="geometry">
            <Array as="points">
              <mxPoint x="620" y="-1335" />
              <mxPoint x="620" y="-1757" />
            </Array>
          </mxGeometry>
        </mxCell>
        <mxCell id="MEbzQi6l0P7NfeyUnzle-1" value="&lt;p style=&quot;margin-top: 0pt ; margin-bottom: 0pt ; margin-left: 0in ; direction: ltr ; unicode-bidi: embed ; word-break: normal&quot;&gt;&lt;span style=&quot;font-family: &amp;#34;arial&amp;#34; ; color: white&quot;&gt;&lt;font style=&quot;font-size: 12px&quot;&gt;Ops -&lt;br&gt;Manual Approval&lt;/font&gt;&lt;/span&gt;&lt;/p&gt;" style="rhombus;whiteSpace=wrap;html=1;strokeColor=#000000;fillColor=#000000;" vertex="1" parent="1">
          <mxGeometry x="340" y="-1375" width="180" height="80" as="geometry" />
        </mxCell>
        <mxCell id="MEbzQi6l0P7NfeyUnzle-3" value="&lt;font style=&quot;font-size: 11px&quot;&gt;Reject / Return&lt;/font&gt;" style="rounded=0;whiteSpace=wrap;html=1;strokeColor=#000000;fillColor=#FFFFFF;" vertex="1" parent="1">
          <mxGeometry x="525" y="-1345" width="80" height="20" as="geometry" />
        </mxCell>
        <mxCell id="MEbzQi6l0P7NfeyUnzle-4" value="&lt;p style=&quot;margin-top: 0pt ; margin-bottom: 0pt ; margin-left: 0in ; text-align: left ; direction: ltr ; unicode-bidi: embed ; word-break: normal&quot;&gt;&lt;font face=&quot;arial&quot;&gt;&lt;span style=&quot;font-size: 11px&quot;&gt;Approve&lt;/span&gt;&lt;/font&gt;&lt;/p&gt;" style="rounded=0;whiteSpace=wrap;html=1;strokeColor=#000000;fillColor=#FFFFFF;" vertex="1" parent="1">
          <mxGeometry x="220" y="-1350" width="100" height="30" as="geometry" />
        </mxCell>
        <mxCell id="MEbzQi6l0P7NfeyUnzle-15" style="edgeStyle=orthogonalEdgeStyle;rounded=0;orthogonalLoop=1;jettySize=auto;html=1;entryX=0.5;entryY=0;entryDx=0;entryDy=0;" edge="1" parent="1" source="MEbzQi6l0P7NfeyUnzle-5" target="MEbzQi6l0P7NfeyUnzle-63">
          <mxGeometry relative="1" as="geometry">
            <mxPoint x="120" y="-1390" as="targetPoint" />
          </mxGeometry>
        </mxCell>
        <mxCell id="MEbzQi6l0P7NfeyUnzle-5" value="&lt;p style=&quot;margin-top: 0pt ; margin-bottom: 0pt ; margin-left: 0in ; text-align: left ; direction: ltr ; unicode-bidi: embed ; word-break: normal&quot;&gt;&lt;span style=&quot;font-family: &amp;#34;arial&amp;#34;&quot;&gt;&lt;font style=&quot;font-size: 12px&quot;&gt;Update&lt;br&gt;DD Status to “Document Verification“ as Pass&amp;nbsp;&lt;/font&gt;&lt;/span&gt;&lt;/p&gt;" style="rounded=0;whiteSpace=wrap;html=1;strokeColor=#000000;fillColor=#FFD966;" vertex="1" parent="1">
          <mxGeometry x="55" y="-1365" width="120" height="60" as="geometry" />
        </mxCell>
        <mxCell id="MEbzQi6l0P7NfeyUnzle-9" value="&lt;b&gt;&lt;font style=&quot;font-size: 14px&quot;&gt;Documentation Verification&lt;/font&gt;&lt;/b&gt;" style="text;html=1;strokeColor=none;fillColor=none;align=center;verticalAlign=middle;whiteSpace=wrap;rounded=0;rotation=-90;" vertex="1" parent="1">
          <mxGeometry x="-140" y="-1425" width="115" height="50" as="geometry" />
        </mxCell>
        <mxCell id="MEbzQi6l0P7NfeyUnzle-98" style="edgeStyle=orthogonalEdgeStyle;rounded=0;orthogonalLoop=1;jettySize=auto;html=1;exitX=0.5;exitY=1;exitDx=0;exitDy=0;entryX=0.5;entryY=0;entryDx=0;entryDy=0;startArrow=none;" edge="1" parent="1" source="MEbzQi6l0P7NfeyUnzle-17" target="MEbzQi6l0P7NfeyUnzle-20">
          <mxGeometry relative="1" as="geometry" />
        </mxCell>
        <mxCell id="MEbzQi6l0P7NfeyUnzle-125" style="edgeStyle=orthogonalEdgeStyle;rounded=0;orthogonalLoop=1;jettySize=auto;html=1;entryX=0.5;entryY=0;entryDx=0;entryDy=0;startArrow=none;" edge="1" parent="1" source="MEbzQi6l0P7NfeyUnzle-16" target="MEbzQi6l0P7NfeyUnzle-18">
          <mxGeometry relative="1" as="geometry" />
        </mxCell>
        <mxCell id="MEbzQi6l0P7NfeyUnzle-11" value="&lt;p style=&quot;margin-top: 0pt ; margin-bottom: 0pt ; margin-left: 0in ; direction: ltr ; unicode-bidi: embed ; word-break: normal&quot;&gt;&lt;span style=&quot;font-family: &amp;#34;arial&amp;#34; ; color: white&quot;&gt;&lt;font style=&quot;font-size: 12px&quot;&gt;Compare&lt;br&gt;the document information vs API output&amp;nbsp;&lt;/font&gt;&lt;/span&gt;&lt;/p&gt;&lt;span style=&quot;color: rgb(255 , 255 , 255) ; font-family: &amp;#34;arial&amp;#34;&quot;&gt;check for BlackList &amp;amp; Prohibited Industry&lt;/span&gt;" style="rhombus;whiteSpace=wrap;html=1;strokeColor=#000000;fillColor=#000000;" vertex="1" parent="1">
          <mxGeometry x="465" y="-1275" width="200" height="90" as="geometry" />
        </mxCell>
        <mxCell id="MEbzQi6l0P7NfeyUnzle-107" style="edgeStyle=orthogonalEdgeStyle;rounded=0;orthogonalLoop=1;jettySize=auto;html=1;entryX=0;entryY=0.5;entryDx=0;entryDy=0;" edge="1" parent="1" source="MEbzQi6l0P7NfeyUnzle-13" target="MEbzQi6l0P7NfeyUnzle-11">
          <mxGeometry relative="1" as="geometry" />
        </mxCell>
        <mxCell id="MEbzQi6l0P7NfeyUnzle-13" value="Ops to select form the possible UBOs" style="rounded=0;whiteSpace=wrap;html=1;strokeColor=#000000;fillColor=#FFD966;" vertex="1" parent="1">
          <mxGeometry x="290" y="-1260" width="120" height="60" as="geometry" />
        </mxCell>
        <mxCell id="MEbzQi6l0P7NfeyUnzle-72" style="edgeStyle=orthogonalEdgeStyle;rounded=0;orthogonalLoop=1;jettySize=auto;html=1;exitX=0;exitY=0.5;exitDx=0;exitDy=0;entryX=1;entryY=0.5;entryDx=0;entryDy=0;" edge="1" parent="1" source="MEbzQi6l0P7NfeyUnzle-18" target="MEbzQi6l0P7NfeyUnzle-22">
          <mxGeometry relative="1" as="geometry" />
        </mxCell>
        <mxCell id="MEbzQi6l0P7NfeyUnzle-18" value="&lt;p style=&quot;margin-top: 0pt ; margin-bottom: 0pt ; margin-left: 0in ; text-align: left ; direction: ltr ; unicode-bidi: embed ; word-break: normal&quot;&gt;&lt;span style=&quot;font-family: &amp;#34;arial&amp;#34;&quot;&gt;&lt;font style=&quot;font-size: 12px&quot;&gt;Update&lt;br&gt;DD Status to “Identity Verification“ as Pending&lt;/font&gt;&lt;/span&gt;&lt;/p&gt;" style="rounded=0;whiteSpace=wrap;html=1;strokeColor=#000000;fillColor=#FFD966;" vertex="1" parent="1">
          <mxGeometry x="430" y="-1010" width="120" height="60" as="geometry" />
        </mxCell>
        <mxCell id="MEbzQi6l0P7NfeyUnzle-145" style="edgeStyle=orthogonalEdgeStyle;rounded=0;orthogonalLoop=1;jettySize=auto;html=1;entryX=0.5;entryY=0;entryDx=0;entryDy=0;" edge="1" parent="1" source="MEbzQi6l0P7NfeyUnzle-20" target="MEbzQi6l0P7NfeyUnzle-40">
          <mxGeometry relative="1" as="geometry">
            <Array as="points">
              <mxPoint x="720" y="-870" />
              <mxPoint x="720" y="-1550" />
              <mxPoint x="890" y="-1550" />
            </Array>
          </mxGeometry>
        </mxCell>
        <mxCell id="MEbzQi6l0P7NfeyUnzle-20" value="&lt;p style=&quot;margin-top: 0pt ; margin-bottom: 0pt ; margin-left: 0in ; text-align: left ; direction: ltr ; unicode-bidi: embed ; word-break: normal&quot;&gt;&lt;span style=&quot;font-family: &amp;#34;arial&amp;#34;&quot;&gt;&lt;font style=&quot;font-size: 12px&quot;&gt;Update&lt;br&gt;DD Status to “Identity Verification“ as Pass&lt;/font&gt;&lt;/span&gt;&lt;/p&gt;" style="rounded=0;whiteSpace=wrap;html=1;strokeColor=#000000;fillColor=#FFD966;" vertex="1" parent="1">
          <mxGeometry x="570" y="-900" width="120" height="60" as="geometry" />
        </mxCell>
        <mxCell id="MEbzQi6l0P7NfeyUnzle-132" style="edgeStyle=orthogonalEdgeStyle;rounded=0;orthogonalLoop=1;jettySize=auto;html=1;entryX=1;entryY=0.5;entryDx=0;entryDy=0;" edge="1" parent="1" source="MEbzQi6l0P7NfeyUnzle-22" target="MEbzQi6l0P7NfeyUnzle-31">
          <mxGeometry relative="1" as="geometry" />
        </mxCell>
        <mxCell id="MEbzQi6l0P7NfeyUnzle-141" style="edgeStyle=orthogonalEdgeStyle;rounded=0;orthogonalLoop=1;jettySize=auto;html=1;entryX=0.25;entryY=1;entryDx=0;entryDy=0;" edge="1" parent="1" source="MEbzQi6l0P7NfeyUnzle-22" target="MEbzQi6l0P7NfeyUnzle-24">
          <mxGeometry relative="1" as="geometry">
            <Array as="points">
              <mxPoint x="328" y="-1020" />
            </Array>
          </mxGeometry>
        </mxCell>
        <mxCell id="MEbzQi6l0P7NfeyUnzle-22" value="&lt;p style=&quot;margin-top: 0pt ; margin-bottom: 0pt ; margin-left: 0in ; text-align: left ; direction: ltr ; unicode-bidi: embed ; word-break: normal&quot;&gt;&lt;span style=&quot;font-family: &amp;#34;arial&amp;#34;&quot;&gt;&lt;font style=&quot;font-size: 12px&quot;&gt;Notify&lt;br&gt;Ops for manual verification&lt;/font&gt;&lt;/span&gt;&lt;/p&gt;" style="rounded=0;whiteSpace=wrap;html=1;strokeColor=#000000;fillColor=#FFD966;" vertex="1" parent="1">
          <mxGeometry x="300" y="-1010" width="110" height="60" as="geometry" />
        </mxCell>
        <mxCell id="MEbzQi6l0P7NfeyUnzle-134" style="edgeStyle=orthogonalEdgeStyle;rounded=0;orthogonalLoop=1;jettySize=auto;html=1;entryX=0.75;entryY=0;entryDx=0;entryDy=0;" edge="1" parent="1" source="MEbzQi6l0P7NfeyUnzle-24" target="MEbzQi6l0P7NfeyUnzle-22">
          <mxGeometry relative="1" as="geometry">
            <Array as="points">
              <mxPoint x="383" y="-1020" />
            </Array>
          </mxGeometry>
        </mxCell>
        <mxCell id="MEbzQi6l0P7NfeyUnzle-24" value="&lt;p style=&quot;margin-top: 0pt ; margin-bottom: 0pt ; margin-left: 0in ; text-align: left ; direction: ltr ; unicode-bidi: embed ; word-break: normal&quot;&gt;&lt;span style=&quot;font-family: &amp;#34;arial&amp;#34;&quot;&gt;&lt;font style=&quot;font-size: 12px&quot;&gt;Check&lt;br&gt;with Risk Officer for final decision review (offline)&lt;/font&gt;&lt;/span&gt;&lt;/p&gt;" style="rounded=0;whiteSpace=wrap;html=1;strokeColor=#000000;fillColor=#A680B8;" vertex="1" parent="1">
          <mxGeometry x="300" y="-1100" width="110" height="60" as="geometry" />
        </mxCell>
        <mxCell id="MEbzQi6l0P7NfeyUnzle-87" style="edgeStyle=orthogonalEdgeStyle;rounded=0;orthogonalLoop=1;jettySize=auto;html=1;entryX=0.5;entryY=0;entryDx=0;entryDy=0;" edge="1" parent="1" source="MEbzQi6l0P7NfeyUnzle-30" target="MEbzQi6l0P7NfeyUnzle-37">
          <mxGeometry relative="1" as="geometry" />
        </mxCell>
        <mxCell id="MEbzQi6l0P7NfeyUnzle-30" value="&lt;p style=&quot;margin-top: 0pt ; margin-bottom: 0pt ; margin-left: 0in ; text-align: left ; direction: ltr ; unicode-bidi: embed ; word-break: normal&quot;&gt;&lt;span style=&quot;font-family: &amp;#34;arial&amp;#34;&quot;&gt;&lt;font style=&quot;font-size: 12px&quot;&gt;Update&lt;br&gt;DD Status to “Identity Verification“ as Fail&lt;/font&gt;&lt;/span&gt;&lt;/p&gt;" style="rounded=0;whiteSpace=wrap;html=1;strokeColor=#000000;fillColor=#FFD966;" vertex="1" parent="1">
          <mxGeometry x="-110" y="-1010" width="120" height="60" as="geometry" />
        </mxCell>
        <mxCell id="MEbzQi6l0P7NfeyUnzle-136" style="edgeStyle=orthogonalEdgeStyle;rounded=0;orthogonalLoop=1;jettySize=auto;html=1;entryX=0;entryY=0.5;entryDx=0;entryDy=0;exitX=0.5;exitY=1;exitDx=0;exitDy=0;" edge="1" parent="1" source="MEbzQi6l0P7NfeyUnzle-31" target="MEbzQi6l0P7NfeyUnzle-20">
          <mxGeometry relative="1" as="geometry" />
        </mxCell>
        <mxCell id="MEbzQi6l0P7NfeyUnzle-138" style="edgeStyle=orthogonalEdgeStyle;rounded=0;orthogonalLoop=1;jettySize=auto;html=1;entryX=1;entryY=0.5;entryDx=0;entryDy=0;" edge="1" parent="1" source="MEbzQi6l0P7NfeyUnzle-31" target="MEbzQi6l0P7NfeyUnzle-30">
          <mxGeometry relative="1" as="geometry" />
        </mxCell>
        <mxCell id="MEbzQi6l0P7NfeyUnzle-31" value="&lt;p style=&quot;margin-top: 0pt ; margin-bottom: 0pt ; margin-left: 0in ; direction: ltr ; unicode-bidi: embed ; word-break: normal&quot;&gt;&lt;span style=&quot;font-family: &amp;#34;arial&amp;#34; ; color: white&quot;&gt;&lt;font style=&quot;font-size: 12px&quot;&gt;Ops -&lt;br&gt;Manual Approval&lt;/font&gt;&lt;/span&gt;&lt;/p&gt;" style="rhombus;whiteSpace=wrap;html=1;strokeColor=#000000;fillColor=#000000;" vertex="1" parent="1">
          <mxGeometry x="100" y="-1020" width="180" height="80" as="geometry" />
        </mxCell>
        <mxCell id="MEbzQi6l0P7NfeyUnzle-144" style="edgeStyle=orthogonalEdgeStyle;rounded=0;orthogonalLoop=1;jettySize=auto;html=1;entryX=0;entryY=0.5;entryDx=0;entryDy=0;exitX=0;exitY=0.5;exitDx=0;exitDy=0;" edge="1" parent="1" source="MEbzQi6l0P7NfeyUnzle-37" target="6H2roo1ruMOSqoAHm1sy-2">
          <mxGeometry relative="1" as="geometry">
            <Array as="points">
              <mxPoint x="-130" y="-867" />
              <mxPoint x="-130" y="-1765" />
            </Array>
          </mxGeometry>
        </mxCell>
        <mxCell id="MEbzQi6l0P7NfeyUnzle-37" value="&lt;p style=&quot;margin-top: 0pt ; margin-bottom: 0pt ; margin-left: 0in ; direction: ltr ; unicode-bidi: embed ; word-break: normal&quot;&gt;&lt;span style=&quot;font-family: &amp;#34;arial&amp;#34;&quot;&gt;&lt;font style=&quot;font-size: 12px&quot;&gt;DD Status = “Rejected”/&quot;Returned&quot;, client status change to “Blocked”&lt;/font&gt;&lt;/span&gt;&lt;/p&gt;" style="rounded=1;whiteSpace=wrap;html=1;strokeColor=#000000;fillColor=#EA6B66;" vertex="1" parent="1">
          <mxGeometry x="-115" y="-905" width="130" height="75" as="geometry" />
        </mxCell>
        <mxCell id="MEbzQi6l0P7NfeyUnzle-83" style="edgeStyle=orthogonalEdgeStyle;rounded=0;orthogonalLoop=1;jettySize=auto;html=1;exitX=0.5;exitY=1;exitDx=0;exitDy=0;entryX=0.5;entryY=0;entryDx=0;entryDy=0;" edge="1" parent="1" source="MEbzQi6l0P7NfeyUnzle-40" target="MEbzQi6l0P7NfeyUnzle-41">
          <mxGeometry relative="1" as="geometry" />
        </mxCell>
        <mxCell id="MEbzQi6l0P7NfeyUnzle-40" value="&lt;p style=&quot;margin-top: 0pt ; margin-bottom: 0pt ; margin-left: 0in ; text-align: left ; direction: ltr ; unicode-bidi: embed ; word-break: normal&quot;&gt;&lt;font face=&quot;arial&quot;&gt;Call Refinitiv API for screening check&lt;/font&gt;&lt;/p&gt;" style="rounded=0;whiteSpace=wrap;html=1;strokeColor=#000000;fillColor=#FFD966;" vertex="1" parent="1">
          <mxGeometry x="830" y="-1520" width="120" height="50" as="geometry" />
        </mxCell>
        <mxCell id="MEbzQi6l0P7NfeyUnzle-149" style="edgeStyle=orthogonalEdgeStyle;rounded=0;orthogonalLoop=1;jettySize=auto;html=1;entryX=0.5;entryY=0;entryDx=0;entryDy=0;" edge="1" parent="1" source="MEbzQi6l0P7NfeyUnzle-41" target="MEbzQi6l0P7NfeyUnzle-47">
          <mxGeometry relative="1" as="geometry" />
        </mxCell>
        <mxCell id="MEbzQi6l0P7NfeyUnzle-41" value="&lt;p style=&quot;margin-top: 0pt ; margin-bottom: 0pt ; margin-left: 0in ; direction: ltr ; unicode-bidi: embed ; word-break: normal&quot;&gt;&lt;span style=&quot;font-family: &amp;#34;arial&amp;#34; ; color: white&quot;&gt;&lt;font style=&quot;font-size: 12px&quot;&gt;Refinitive&lt;br&gt;Return Search Results (Might be Multiple)&lt;/font&gt;&lt;/span&gt;&lt;/p&gt;" style="rhombus;whiteSpace=wrap;html=1;strokeColor=#000000;fillColor=#000000;" vertex="1" parent="1">
          <mxGeometry x="790" y="-1460" width="200" height="80" as="geometry" />
        </mxCell>
        <mxCell id="MEbzQi6l0P7NfeyUnzle-43" value="&lt;p style=&quot;margin-top: 0pt ; margin-bottom: 0pt ; margin-left: 0in ; text-align: left ; direction: ltr ; unicode-bidi: embed ; word-break: normal&quot;&gt;&lt;font style=&quot;font-size: 11px&quot;&gt;&lt;span style=&quot;font-family: &amp;#34;arial&amp;#34;&quot;&gt;If no&amp;nbsp;&lt;/span&gt;&lt;span style=&quot;font-family: &amp;#34;arial&amp;#34;&quot;&gt;result from &lt;/span&gt;&lt;span style=&quot;font-family: &amp;#34;arial&amp;#34;&quot;&gt;Refinitiv&lt;/span&gt;&lt;/font&gt;&lt;/p&gt;" style="rounded=0;whiteSpace=wrap;html=1;strokeColor=#000000;fillColor=#FFFFFF;" vertex="1" parent="1">
          <mxGeometry x="1020" y="-1435" width="90" height="30" as="geometry" />
        </mxCell>
        <mxCell id="MEbzQi6l0P7NfeyUnzle-44" value="&lt;p style=&quot;margin-top: 0pt ; margin-bottom: 0pt ; margin-left: 0in ; text-align: left ; direction: ltr ; unicode-bidi: embed ; word-break: normal&quot;&gt;&lt;span style=&quot;font-family: &amp;#34;arial&amp;#34;&quot;&gt;&lt;font style=&quot;font-size: 11px&quot;&gt;If any result from Refinitiv&lt;/font&gt;&lt;/span&gt;&lt;/p&gt;" style="rounded=0;whiteSpace=wrap;html=1;strokeColor=#000000;fillColor=#FFFFFF;" vertex="1" parent="1">
          <mxGeometry x="845" y="-1380" width="90" height="25" as="geometry" />
        </mxCell>
        <mxCell id="MEbzQi6l0P7NfeyUnzle-150" style="edgeStyle=orthogonalEdgeStyle;rounded=0;orthogonalLoop=1;jettySize=auto;html=1;entryX=0.5;entryY=0;entryDx=0;entryDy=0;" edge="1" parent="1" source="MEbzQi6l0P7NfeyUnzle-47" target="MEbzQi6l0P7NfeyUnzle-48">
          <mxGeometry relative="1" as="geometry" />
        </mxCell>
        <mxCell id="MEbzQi6l0P7NfeyUnzle-47" value="&lt;p style=&quot;margin-top: 0pt ; margin-bottom: 0pt ; margin-left: 0in ; text-align: left ; direction: ltr ; unicode-bidi: embed ; word-break: normal&quot;&gt;&lt;span style=&quot;font-family: &amp;#34;arial&amp;#34;&quot;&gt;&lt;font style=&quot;font-size: 12px&quot;&gt;Ops&lt;br&gt;to Select Matched Client and Call Refinitiv API again&lt;/font&gt;&lt;/span&gt;&lt;/p&gt;" style="rounded=0;whiteSpace=wrap;html=1;strokeColor=#000000;fillColor=#FFD966;" vertex="1" parent="1">
          <mxGeometry x="830" y="-1340" width="120" height="60" as="geometry" />
        </mxCell>
        <mxCell id="MEbzQi6l0P7NfeyUnzle-151" style="edgeStyle=orthogonalEdgeStyle;rounded=0;orthogonalLoop=1;jettySize=auto;html=1;entryX=0.5;entryY=0;entryDx=0;entryDy=0;" edge="1" parent="1" source="MEbzQi6l0P7NfeyUnzle-48" target="MEbzQi6l0P7NfeyUnzle-51">
          <mxGeometry relative="1" as="geometry" />
        </mxCell>
        <mxCell id="MEbzQi6l0P7NfeyUnzle-153" style="edgeStyle=orthogonalEdgeStyle;rounded=0;orthogonalLoop=1;jettySize=auto;html=1;entryX=0.5;entryY=0;entryDx=0;entryDy=0;" edge="1" parent="1" source="MEbzQi6l0P7NfeyUnzle-48" target="MEbzQi6l0P7NfeyUnzle-52">
          <mxGeometry relative="1" as="geometry" />
        </mxCell>
        <mxCell id="MEbzQi6l0P7NfeyUnzle-48" value="&lt;p style=&quot;margin-top: 0pt ; margin-bottom: 0pt ; margin-left: 0in ; direction: ltr ; unicode-bidi: embed ; word-break: normal&quot;&gt;&lt;span style=&quot;font-family: &amp;#34;arial&amp;#34; ; color: white&quot;&gt;&lt;font style=&quot;font-size: 12px&quot;&gt;Screening&lt;br&gt;for sanction/ PEP/ Adverse New for entity/ person/ UBO&lt;/font&gt;&lt;/span&gt;&lt;/p&gt;" style="rhombus;whiteSpace=wrap;html=1;strokeColor=#000000;fillColor=#000000;" vertex="1" parent="1">
          <mxGeometry x="790" y="-1260" width="200" height="80" as="geometry" />
        </mxCell>
        <mxCell id="MEbzQi6l0P7NfeyUnzle-49" value="&lt;p style=&quot;margin-top: 0pt ; margin-bottom: 0pt ; margin-left: 0in ; text-align: left ; direction: ltr ; unicode-bidi: embed ; word-break: normal&quot;&gt;&lt;span style=&quot;font-family: &amp;#34;arial&amp;#34;&quot;&gt;&lt;font style=&quot;font-size: 11px&quot;&gt;If no red flag from Refinitiv&lt;/font&gt;&lt;/span&gt;&lt;/p&gt;" style="rounded=0;whiteSpace=wrap;html=1;strokeColor=#000000;fillColor=#FFFFFF;" vertex="1" parent="1">
          <mxGeometry x="733" y="-1165" width="135" height="15" as="geometry" />
        </mxCell>
        <mxCell id="MEbzQi6l0P7NfeyUnzle-50" value="&lt;p style=&quot;margin-top: 0pt ; margin-bottom: 0pt ; margin-left: 0in ; text-align: left ; direction: ltr ; unicode-bidi: embed ; word-break: normal&quot;&gt;&lt;span style=&quot;font-family: &amp;#34;arial&amp;#34;&quot;&gt;&lt;font style=&quot;font-size: 11px&quot;&gt;if any red flag from Refinitiv&lt;/font&gt;&lt;/span&gt;&lt;/p&gt;" style="rounded=0;whiteSpace=wrap;html=1;strokeColor=#000000;fillColor=#FFFFFF;" vertex="1" parent="1">
          <mxGeometry x="917.5" y="-1165" width="142.5" height="15" as="geometry" />
        </mxCell>
        <mxCell id="MEbzQi6l0P7NfeyUnzle-51" value="&lt;p style=&quot;margin-top: 0pt ; margin-bottom: 0pt ; margin-left: 0in ; text-align: left ; direction: ltr ; unicode-bidi: embed ; word-break: normal&quot;&gt;&lt;span style=&quot;font-family: &amp;#34;arial&amp;#34;&quot;&gt;&lt;font style=&quot;font-size: 12px&quot;&gt;Update&lt;br&gt;DD Status to “Screening Verification“ as Pass&lt;/font&gt;&lt;/span&gt;&lt;/p&gt;" style="rounded=0;whiteSpace=wrap;html=1;strokeColor=#000000;fillColor=#FFD966;" vertex="1" parent="1">
          <mxGeometry x="745" y="-1125" width="130" height="60" as="geometry" />
        </mxCell>
        <mxCell id="MEbzQi6l0P7NfeyUnzle-154" style="edgeStyle=orthogonalEdgeStyle;rounded=0;orthogonalLoop=1;jettySize=auto;html=1;entryX=0.5;entryY=0;entryDx=0;entryDy=0;" edge="1" parent="1" source="MEbzQi6l0P7NfeyUnzle-52" target="MEbzQi6l0P7NfeyUnzle-53">
          <mxGeometry relative="1" as="geometry" />
        </mxCell>
        <mxCell id="MEbzQi6l0P7NfeyUnzle-52" value="&lt;p style=&quot;margin-top: 0pt ; margin-bottom: 0pt ; margin-left: 0in ; text-align: left ; direction: ltr ; unicode-bidi: embed ; word-break: normal&quot;&gt;&lt;span style=&quot;font-family: &amp;#34;arial&amp;#34;&quot;&gt;&lt;font style=&quot;font-size: 12px&quot;&gt;Update&lt;br&gt;DD Status to “Screening Verification“ as Pending&lt;/font&gt;&lt;/span&gt;&lt;/p&gt;" style="rounded=0;whiteSpace=wrap;html=1;strokeColor=#000000;fillColor=#FFD966;" vertex="1" parent="1">
          <mxGeometry x="920" y="-1125" width="140" height="60" as="geometry" />
        </mxCell>
        <mxCell id="MEbzQi6l0P7NfeyUnzle-155" style="edgeStyle=orthogonalEdgeStyle;rounded=0;orthogonalLoop=1;jettySize=auto;html=1;entryX=0.5;entryY=0;entryDx=0;entryDy=0;" edge="1" parent="1" source="MEbzQi6l0P7NfeyUnzle-53" target="MEbzQi6l0P7NfeyUnzle-58">
          <mxGeometry relative="1" as="geometry" />
        </mxCell>
        <mxCell id="MEbzQi6l0P7NfeyUnzle-156" style="edgeStyle=orthogonalEdgeStyle;rounded=0;orthogonalLoop=1;jettySize=auto;html=1;entryX=0;entryY=0.25;entryDx=0;entryDy=0;exitX=1;exitY=0.25;exitDx=0;exitDy=0;" edge="1" parent="1" source="MEbzQi6l0P7NfeyUnzle-53" target="MEbzQi6l0P7NfeyUnzle-54">
          <mxGeometry relative="1" as="geometry" />
        </mxCell>
        <mxCell id="MEbzQi6l0P7NfeyUnzle-53" value="&lt;p style=&quot;margin-top: 0pt ; margin-bottom: 0pt ; margin-left: 0in ; text-align: left ; direction: ltr ; unicode-bidi: embed ; word-break: normal&quot;&gt;&lt;span style=&quot;font-family: &amp;#34;arial&amp;#34;&quot;&gt;&lt;font style=&quot;font-size: 12px&quot;&gt;Ops&lt;br&gt;to manual verify the screening result&lt;/font&gt;&lt;/span&gt;&lt;/p&gt;" style="rounded=0;whiteSpace=wrap;html=1;strokeColor=#000000;fillColor=#FFD966;" vertex="1" parent="1">
          <mxGeometry x="920" y="-1040" width="140" height="60" as="geometry" />
        </mxCell>
        <mxCell id="MEbzQi6l0P7NfeyUnzle-157" style="edgeStyle=orthogonalEdgeStyle;rounded=0;orthogonalLoop=1;jettySize=auto;html=1;entryX=1;entryY=0.75;entryDx=0;entryDy=0;exitX=0;exitY=0.75;exitDx=0;exitDy=0;" edge="1" parent="1" source="MEbzQi6l0P7NfeyUnzle-54" target="MEbzQi6l0P7NfeyUnzle-53">
          <mxGeometry relative="1" as="geometry" />
        </mxCell>
        <mxCell id="MEbzQi6l0P7NfeyUnzle-54" value="&lt;p style=&quot;margin-top: 0pt ; margin-bottom: 0pt ; margin-left: 0in ; text-align: left ; direction: ltr ; unicode-bidi: embed ; word-break: normal&quot;&gt;&lt;span style=&quot;font-family: &amp;#34;arial&amp;#34;&quot;&gt;&lt;font style=&quot;font-size: 12px&quot;&gt;Check&lt;br&gt;with Risk Officer for final decision review (offline)&lt;/font&gt;&lt;/span&gt;&lt;/p&gt;" style="rounded=0;whiteSpace=wrap;html=1;strokeColor=#000000;fillColor=#A680B8;" vertex="1" parent="1">
          <mxGeometry x="1100" y="-1040" width="140" height="60" as="geometry" />
        </mxCell>
        <mxCell id="MEbzQi6l0P7NfeyUnzle-55" value="&lt;p style=&quot;margin-top: 0pt ; margin-bottom: 0pt ; margin-left: 0in ; direction: ltr ; unicode-bidi: embed ; word-break: normal&quot;&gt;&lt;span style=&quot;font-family: &amp;#34;arial&amp;#34;&quot;&gt;&lt;font style=&quot;font-size: 12px&quot;&gt;DD&lt;br&gt;Process End, client status change to “Active”&lt;/font&gt;&lt;/span&gt;&lt;/p&gt;" style="rounded=1;whiteSpace=wrap;html=1;strokeColor=#000000;fillColor=#97D077;" vertex="1" parent="1">
          <mxGeometry x="745" y="-1040" width="120" height="60" as="geometry" />
        </mxCell>
        <mxCell id="MEbzQi6l0P7NfeyUnzle-162" style="edgeStyle=orthogonalEdgeStyle;rounded=0;orthogonalLoop=1;jettySize=auto;html=1;entryX=1;entryY=0.25;entryDx=0;entryDy=0;exitX=0.5;exitY=1;exitDx=0;exitDy=0;" edge="1" parent="1" source="MEbzQi6l0P7NfeyUnzle-56" target="6H2roo1ruMOSqoAHm1sy-2">
          <mxGeometry relative="1" as="geometry">
            <Array as="points">
              <mxPoint x="1085" y="-660" />
              <mxPoint x="1260" y="-660" />
              <mxPoint x="1260" y="-1772" />
            </Array>
          </mxGeometry>
        </mxCell>
        <mxCell id="MEbzQi6l0P7NfeyUnzle-56" value="&lt;p style=&quot;margin-top: 0pt ; margin-bottom: 0pt ; margin-left: 0in ; direction: ltr ; unicode-bidi: embed ; word-break: normal&quot;&gt;&lt;span style=&quot;font-family: &amp;#34;arial&amp;#34;&quot;&gt;&lt;font style=&quot;font-size: 12px&quot;&gt;DD&amp;nbsp;&lt;/font&gt;&lt;/span&gt;&lt;/p&gt;&lt;p style=&quot;margin-top: 0pt ; margin-bottom: 0pt ; margin-left: 0in ; direction: ltr ; unicode-bidi: embed ; word-break: normal&quot;&gt;&lt;span style=&quot;font-family: &amp;#34;arial&amp;#34;&quot;&gt;&lt;font style=&quot;font-size: 12px&quot;&gt;Status = “Rejected” or &quot;Returned&quot;, client status change to “Blocked”&lt;/font&gt;&lt;/span&gt;&lt;/p&gt;" style="rounded=1;whiteSpace=wrap;html=1;strokeColor=#000000;fillColor=#EA6B66;" vertex="1" parent="1">
          <mxGeometry x="1023.75" y="-750" width="122.5" height="70" as="geometry" />
        </mxCell>
        <mxCell id="MEbzQi6l0P7NfeyUnzle-57" value="&lt;p style=&quot;margin-top: 0pt ; margin-bottom: 0pt ; margin-left: 0in ; direction: ltr ; unicode-bidi: embed ; word-break: normal&quot;&gt;&lt;span style=&quot;font-family: &amp;#34;arial&amp;#34;&quot;&gt;&lt;font style=&quot;font-size: 12px&quot;&gt;DD&lt;br&gt;Status = “Approved”, client status change to “Active”&lt;/font&gt;&lt;/span&gt;&lt;/p&gt;" style="rounded=1;whiteSpace=wrap;html=1;strokeColor=#000000;fillColor=#97D077;" vertex="1" parent="1">
          <mxGeometry x="842.5" y="-750" width="120" height="70" as="geometry" />
        </mxCell>
        <mxCell id="MEbzQi6l0P7NfeyUnzle-158" style="edgeStyle=orthogonalEdgeStyle;rounded=0;orthogonalLoop=1;jettySize=auto;html=1;entryX=0.5;entryY=0;entryDx=0;entryDy=0;" edge="1" parent="1" source="MEbzQi6l0P7NfeyUnzle-58" target="MEbzQi6l0P7NfeyUnzle-62">
          <mxGeometry relative="1" as="geometry" />
        </mxCell>
        <mxCell id="MEbzQi6l0P7NfeyUnzle-159" style="edgeStyle=orthogonalEdgeStyle;rounded=0;orthogonalLoop=1;jettySize=auto;html=1;entryX=0.5;entryY=0;entryDx=0;entryDy=0;" edge="1" parent="1" source="MEbzQi6l0P7NfeyUnzle-58" target="MEbzQi6l0P7NfeyUnzle-61">
          <mxGeometry relative="1" as="geometry" />
        </mxCell>
        <mxCell id="MEbzQi6l0P7NfeyUnzle-58" value="&lt;p style=&quot;margin-top: 0pt ; margin-bottom: 0pt ; margin-left: 0in ; direction: ltr ; unicode-bidi: embed ; word-break: normal&quot;&gt;&lt;span style=&quot;color: white ; font-family: &amp;#34;arial&amp;#34;&quot;&gt;&lt;font style=&quot;font-size: 12px&quot;&gt;Manual&lt;br&gt;Approval&lt;/font&gt;&lt;/span&gt;&lt;br&gt;&lt;/p&gt;" style="rhombus;whiteSpace=wrap;html=1;strokeColor=#000000;fillColor=#000000;" vertex="1" parent="1">
          <mxGeometry x="900" y="-960" width="180" height="80" as="geometry" />
        </mxCell>
        <mxCell id="MEbzQi6l0P7NfeyUnzle-59" value="&lt;p style=&quot;margin-top: 0pt ; margin-bottom: 0pt ; margin-left: 0in ; direction: ltr ; unicode-bidi: embed ; word-break: normal&quot;&gt;&lt;font face=&quot;arial&quot;&gt;&lt;span style=&quot;font-size: 11px&quot;&gt;Approve&lt;/span&gt;&lt;/font&gt;&lt;/p&gt;" style="rounded=0;whiteSpace=wrap;html=1;strokeColor=#000000;fillColor=#FFFFFF;" vertex="1" parent="1">
          <mxGeometry x="860" y="-865" width="85" height="20" as="geometry" />
        </mxCell>
        <mxCell id="MEbzQi6l0P7NfeyUnzle-60" value="&lt;font style=&quot;font-size: 11px&quot;&gt;Return or Reject&lt;/font&gt;" style="rounded=0;whiteSpace=wrap;html=1;strokeColor=#000000;fillColor=#FFFFFF;" vertex="1" parent="1">
          <mxGeometry x="1040" y="-865" width="90" height="20" as="geometry" />
        </mxCell>
        <mxCell id="MEbzQi6l0P7NfeyUnzle-161" style="edgeStyle=orthogonalEdgeStyle;rounded=0;orthogonalLoop=1;jettySize=auto;html=1;entryX=0.5;entryY=0;entryDx=0;entryDy=0;" edge="1" parent="1" source="MEbzQi6l0P7NfeyUnzle-61" target="MEbzQi6l0P7NfeyUnzle-56">
          <mxGeometry relative="1" as="geometry" />
        </mxCell>
        <mxCell id="MEbzQi6l0P7NfeyUnzle-61" value="&lt;p style=&quot;margin-top: 0pt ; margin-bottom: 0pt ; margin-left: 0in ; text-align: left ; direction: ltr ; unicode-bidi: embed ; word-break: normal&quot;&gt;&lt;span style=&quot;font-family: &amp;#34;arial&amp;#34;&quot;&gt;&lt;font style=&quot;font-size: 12px&quot;&gt;Update&lt;br&gt;DD Status to “Screening Verification“ as Fail&lt;/font&gt;&lt;/span&gt;&lt;/p&gt;" style="rounded=0;whiteSpace=wrap;html=1;strokeColor=#000000;fillColor=#FFD966;" vertex="1" parent="1">
          <mxGeometry x="1025" y="-830" width="120" height="60" as="geometry" />
        </mxCell>
        <mxCell id="MEbzQi6l0P7NfeyUnzle-160" style="edgeStyle=orthogonalEdgeStyle;rounded=0;orthogonalLoop=1;jettySize=auto;html=1;entryX=0.5;entryY=0;entryDx=0;entryDy=0;" edge="1" parent="1" source="MEbzQi6l0P7NfeyUnzle-62" target="MEbzQi6l0P7NfeyUnzle-57">
          <mxGeometry relative="1" as="geometry" />
        </mxCell>
        <mxCell id="MEbzQi6l0P7NfeyUnzle-62" value="&lt;p style=&quot;margin-top: 0pt ; margin-bottom: 0pt ; margin-left: 0in ; text-align: left ; direction: ltr ; unicode-bidi: embed ; word-break: normal&quot;&gt;&lt;span style=&quot;font-family: &amp;#34;arial&amp;#34;&quot;&gt;&lt;font style=&quot;font-size: 12px&quot;&gt;Update&lt;br&gt;DD Status to “Screening Verification“ as Pass&lt;/font&gt;&lt;/span&gt;&lt;/p&gt;" style="rounded=0;whiteSpace=wrap;html=1;strokeColor=#000000;fillColor=#FFD966;" vertex="1" parent="1">
          <mxGeometry x="842.5" y="-830" width="120" height="60" as="geometry" />
        </mxCell>
        <mxCell id="MEbzQi6l0P7NfeyUnzle-106" style="edgeStyle=orthogonalEdgeStyle;rounded=0;orthogonalLoop=1;jettySize=auto;html=1;entryX=0;entryY=0.5;entryDx=0;entryDy=0;startArrow=none;" edge="1" parent="1" source="MEbzQi6l0P7NfeyUnzle-110" target="MEbzQi6l0P7NfeyUnzle-13">
          <mxGeometry relative="1" as="geometry" />
        </mxCell>
        <mxCell id="MEbzQi6l0P7NfeyUnzle-112" style="edgeStyle=orthogonalEdgeStyle;rounded=0;orthogonalLoop=1;jettySize=auto;html=1;entryX=0.5;entryY=0;entryDx=0;entryDy=0;" edge="1" parent="1" source="MEbzQi6l0P7NfeyUnzle-63" target="MEbzQi6l0P7NfeyUnzle-108">
          <mxGeometry relative="1" as="geometry" />
        </mxCell>
        <mxCell id="MEbzQi6l0P7NfeyUnzle-63" value="Call Chekk API for &quot;Identify Verification&quot;" style="rounded=0;whiteSpace=wrap;html=1;strokeColor=#000000;fillColor=#FFD966;" vertex="1" parent="1">
          <mxGeometry x="70" y="-1260" width="90" height="60" as="geometry" />
        </mxCell>
        <mxCell id="MEbzQi6l0P7NfeyUnzle-64" value="&lt;p style=&quot;margin-top: 0pt ; margin-bottom: 0pt ; margin-left: 0in ; text-align: left ; direction: ltr ; unicode-bidi: embed ; word-break: normal&quot;&gt;&lt;font face=&quot;arial&quot;&gt;&lt;span style=&quot;font-size: 11px&quot;&gt;Yes (with support evidence)&lt;/span&gt;&lt;/font&gt;&lt;/p&gt;" style="rounded=0;whiteSpace=wrap;html=1;strokeColor=#000000;fillColor=#FFFFFF;" vertex="1" parent="1">
          <mxGeometry x="220" y="-885" width="150" height="30" as="geometry" />
        </mxCell>
        <mxCell id="6H2roo1ruMOSqoAHm1sy-11" value="&lt;font style=&quot;font-size: 11px&quot;&gt;Different&lt;/font&gt;" style="rounded=0;whiteSpace=wrap;html=1;strokeColor=#000000;fillColor=#FFFFFF;" parent="1" vertex="1">
          <mxGeometry x="250" y="-1475" width="90" height="20" as="geometry" />
        </mxCell>
        <mxCell id="MEbzQi6l0P7NfeyUnzle-84" value="" style="edgeStyle=orthogonalEdgeStyle;rounded=0;orthogonalLoop=1;jettySize=auto;html=1;endArrow=none;" edge="1" parent="1" source="6H2roo1ruMOSqoAHm1sy-8" target="6H2roo1ruMOSqoAHm1sy-11">
          <mxGeometry relative="1" as="geometry">
            <mxPoint x="370" y="-1465" as="targetPoint" />
            <mxPoint x="232.35000000000014" y="-1454.9333333333334" as="sourcePoint" />
          </mxGeometry>
        </mxCell>
        <mxCell id="MEbzQi6l0P7NfeyUnzle-33" value="Reject / &lt;br&gt;Return" style="rounded=0;whiteSpace=wrap;html=1;strokeColor=#000000;fillColor=#FFFFFF;" vertex="1" parent="1">
          <mxGeometry x="25" y="-995" width="65" height="30" as="geometry" />
        </mxCell>
        <mxCell id="MEbzQi6l0P7NfeyUnzle-118" style="edgeStyle=orthogonalEdgeStyle;rounded=0;orthogonalLoop=1;jettySize=auto;html=1;entryX=0.5;entryY=1;entryDx=0;entryDy=0;startArrow=none;" edge="1" parent="1" source="MEbzQi6l0P7NfeyUnzle-114" target="MEbzQi6l0P7NfeyUnzle-115">
          <mxGeometry relative="1" as="geometry" />
        </mxCell>
        <mxCell id="MEbzQi6l0P7NfeyUnzle-108" value="&lt;p style=&quot;margin-top: 0pt ; margin-bottom: 0pt ; margin-left: 0in ; direction: ltr ; unicode-bidi: embed ; word-break: normal&quot;&gt;&lt;span style=&quot;font-family: &amp;#34;arial&amp;#34; ; color: white&quot;&gt;&lt;font style=&quot;font-size: 12px&quot;&gt;API response from chekk&lt;/font&gt;&lt;/span&gt;&lt;/p&gt;" style="rhombus;whiteSpace=wrap;html=1;strokeColor=#000000;fillColor=#000000;" vertex="1" parent="1">
          <mxGeometry x="25" y="-1175" width="180" height="80" as="geometry" />
        </mxCell>
        <mxCell id="MEbzQi6l0P7NfeyUnzle-110" value="&lt;font face=&quot;arial&quot;&gt;&lt;span style=&quot;font-size: 11px&quot;&gt;have response&lt;/span&gt;&lt;/font&gt;" style="rounded=0;whiteSpace=wrap;html=1;strokeColor=#000000;fillColor=#FFFFFF;" vertex="1" parent="1">
          <mxGeometry x="227.5" y="-1150" width="75" height="30" as="geometry" />
        </mxCell>
        <mxCell id="MEbzQi6l0P7NfeyUnzle-113" value="" style="edgeStyle=orthogonalEdgeStyle;rounded=0;orthogonalLoop=1;jettySize=auto;html=1;entryX=0;entryY=0.5;entryDx=0;entryDy=0;startArrow=none;endArrow=none;" edge="1" parent="1" source="MEbzQi6l0P7NfeyUnzle-108" target="MEbzQi6l0P7NfeyUnzle-110">
          <mxGeometry relative="1" as="geometry">
            <mxPoint x="205" y="-1135" as="sourcePoint" />
            <mxPoint x="320" y="-1140" as="targetPoint" />
          </mxGeometry>
        </mxCell>
        <mxCell id="MEbzQi6l0P7NfeyUnzle-120" style="edgeStyle=orthogonalEdgeStyle;rounded=0;orthogonalLoop=1;jettySize=auto;html=1;entryX=0;entryY=0.5;entryDx=0;entryDy=0;" edge="1" parent="1" source="MEbzQi6l0P7NfeyUnzle-115" target="MEbzQi6l0P7NfeyUnzle-63">
          <mxGeometry relative="1" as="geometry" />
        </mxCell>
        <mxCell id="MEbzQi6l0P7NfeyUnzle-115" value="&lt;p style=&quot;margin-top: 0pt ; margin-bottom: 0pt ; margin-left: 0in ; text-align: left ; direction: ltr ; unicode-bidi: embed ; word-break: normal&quot;&gt;&lt;span style=&quot;font-family: &amp;#34;arial&amp;#34;&quot;&gt;&lt;font style=&quot;font-size: 12px&quot;&gt;Update&lt;br&gt;DD Status to “Identity Verification“ as Pending&lt;/font&gt;&lt;/span&gt;&lt;/p&gt;" style="rounded=0;whiteSpace=wrap;html=1;strokeColor=#000000;fillColor=#FFD966;" vertex="1" parent="1">
          <mxGeometry x="-95" y="-1260" width="120" height="60" as="geometry" />
        </mxCell>
        <mxCell id="MEbzQi6l0P7NfeyUnzle-114" value="&lt;font face=&quot;arial&quot;&gt;&lt;span style=&quot;font-size: 11px&quot;&gt;have response&lt;/span&gt;&lt;/font&gt;" style="rounded=0;whiteSpace=wrap;html=1;strokeColor=#000000;fillColor=#FFFFFF;" vertex="1" parent="1">
          <mxGeometry x="-72.5" y="-1150" width="75" height="30" as="geometry" />
        </mxCell>
        <mxCell id="MEbzQi6l0P7NfeyUnzle-119" value="" style="edgeStyle=orthogonalEdgeStyle;rounded=0;orthogonalLoop=1;jettySize=auto;html=1;entryX=1;entryY=0.5;entryDx=0;entryDy=0;endArrow=none;" edge="1" parent="1" source="MEbzQi6l0P7NfeyUnzle-108" target="MEbzQi6l0P7NfeyUnzle-114">
          <mxGeometry relative="1" as="geometry">
            <mxPoint x="25" y="-1135" as="sourcePoint" />
            <mxPoint x="-100" y="-1135" as="targetPoint" />
          </mxGeometry>
        </mxCell>
        <mxCell id="MEbzQi6l0P7NfeyUnzle-17" value="&lt;p style=&quot;margin-top: 0pt ; margin-bottom: 0pt ; margin-left: 0in ; text-align: left ; direction: ltr ; unicode-bidi: embed ; word-break: normal&quot;&gt;&lt;span style=&quot;font-family: &amp;#34;arial&amp;#34;&quot;&gt;&lt;font style=&quot;font-size: 11px&quot;&gt;Attribute Match = True&lt;/font&gt;&lt;/span&gt;&lt;/p&gt;&lt;p style=&quot;margin-top: 0pt ; margin-bottom: 0pt ; margin-left: 0in ; text-align: left ; direction: ltr ; unicode-bidi: embed ; word-break: normal&quot;&gt;&lt;span style=&quot;font-family: &amp;#34;arial&amp;#34;&quot;&gt;&lt;font style=&quot;font-size: 11px&quot;&gt;&amp;amp; not in blacklist&lt;/font&gt;&lt;/span&gt;&lt;/p&gt;" style="rounded=0;whiteSpace=wrap;html=1;strokeColor=#000000;fillColor=#FFFFFF;" vertex="1" parent="1">
          <mxGeometry x="570" y="-1130" width="120" height="30" as="geometry" />
        </mxCell>
        <mxCell id="MEbzQi6l0P7NfeyUnzle-123" value="" style="edgeStyle=orthogonalEdgeStyle;rounded=0;orthogonalLoop=1;jettySize=auto;html=1;exitX=0.5;exitY=1;exitDx=0;exitDy=0;entryX=0.5;entryY=0;entryDx=0;entryDy=0;endArrow=none;" edge="1" parent="1" source="MEbzQi6l0P7NfeyUnzle-11" target="MEbzQi6l0P7NfeyUnzle-17">
          <mxGeometry relative="1" as="geometry">
            <mxPoint x="565" y="-1185" as="sourcePoint" />
            <mxPoint x="590" y="-965" as="targetPoint" />
          </mxGeometry>
        </mxCell>
        <mxCell id="MEbzQi6l0P7NfeyUnzle-16" value="&lt;p style=&quot;margin-top: 0pt ; margin-bottom: 0pt ; margin-left: 0in ; text-align: left ; direction: ltr ; unicode-bidi: embed ; word-break: normal&quot;&gt;&lt;span style=&quot;font-family: &amp;#34;arial&amp;#34;&quot;&gt;&lt;font style=&quot;font-size: 11px&quot;&gt;Attribute Match = False&lt;/font&gt;&lt;/span&gt;&lt;/p&gt;&lt;p style=&quot;margin-top: 0pt ; margin-bottom: 0pt ; margin-left: 0in ; text-align: left ; direction: ltr ; unicode-bidi: embed ; word-break: normal&quot;&gt;&lt;span style=&quot;font-family: &amp;#34;arial&amp;#34;&quot;&gt;&lt;font style=&quot;font-size: 11px&quot;&gt;or in blacklist&amp;nbsp;&lt;/font&gt;&lt;/span&gt;&lt;/p&gt;" style="rounded=0;whiteSpace=wrap;html=1;strokeColor=#000000;fillColor=#FFFFFF;" vertex="1" parent="1">
          <mxGeometry x="430" y="-1130" width="120" height="30" as="geometry" />
        </mxCell>
        <mxCell id="MEbzQi6l0P7NfeyUnzle-126" value="" style="edgeStyle=orthogonalEdgeStyle;rounded=0;orthogonalLoop=1;jettySize=auto;html=1;entryX=0.5;entryY=0;entryDx=0;entryDy=0;endArrow=none;" edge="1" parent="1" source="MEbzQi6l0P7NfeyUnzle-11" target="MEbzQi6l0P7NfeyUnzle-16">
          <mxGeometry relative="1" as="geometry">
            <mxPoint x="565" y="-1185" as="sourcePoint" />
            <mxPoint x="465" y="-1040" as="targetPoint" />
          </mxGeometry>
        </mxCell>
        <mxCell id="MEbzQi6l0P7NfeyUnzle-142" value="&lt;p style=&quot;margin-top: 0pt ; margin-bottom: 0pt ; margin-left: 0in ; direction: ltr ; unicode-bidi: embed ; word-break: normal&quot;&gt;&lt;span style=&quot;font-family: &amp;#34;arial&amp;#34;&quot;&gt;&lt;font style=&quot;font-size: 12px&quot;&gt;DD&lt;br&gt;Status = “Rejected”, client status change to “Blocked”&lt;/font&gt;&lt;/span&gt;&lt;/p&gt;" style="rounded=1;whiteSpace=wrap;html=1;strokeColor=#000000;fillColor=#EA6B66;" vertex="1" parent="1">
          <mxGeometry x="560" y="-1435" width="120" height="60" as="geometry" />
        </mxCell>
      </root>
    </mxGraphModel>
  </diagram>
  <diagram id="hpsktDdOoi9kmC5ZOfVd" name="Page-2">
    <mxGraphModel dx="1043" dy="548" grid="1" gridSize="10" guides="1" tooltips="1" connect="1" arrows="1" fold="1" page="1" pageScale="1" pageWidth="827" pageHeight="1169" math="0" shadow="0">
      <root>
        <mxCell id="8zyxuJKCy2dtOahPuZgG-0" />
        <mxCell id="8zyxuJKCy2dtOahPuZgG-1" parent="8zyxuJKCy2dtOahPuZgG-0" />
      </root>
    </mxGraphModel>
  </diagram>
</mxfile>
